<svg width="500" height="236" viewBox="0 0 500 236" fill="none" xmlns="http://www.w3.org/2000/svg">
<g clip-path="url(#clip0_29_694)">
<rect x="1.04904e-05" width="500" height="235" fill="white"/>
<path fill-rule="evenodd" clip-rule="evenodd" d="M1.04904e-05 0L0 235V236H500V235H1L1.00001 0H1.04904e-05Z" fill="#75C94E"/>
<path fill-rule="evenodd" clip-rule="evenodd" d="M500 36H0V37H500V36ZM0 76H500V77H0V76ZM0 116H500V117H0V116ZM0 156H500V157H0V156ZM500 196H0V197H500V196Z" fill="#56AA2D" fill-opacity="0.15"/>
<path d="M1 68.0006C44 65.5006 140.2 66.5006 181 90.5006C232 120.501 296.5 175 343 185.5C380.2 193.9 463.833 196 501 196" stroke="#75C94E" stroke-width="4"/>
<circle cx="73.5" cy="68.5" r="5" fill="white" stroke="#75C94E" stroke-width="3"/>
<circle cx="55.5" cy="67.5" r="5" fill="white" stroke="#75C94E" stroke-width="3"/>
<circle cx="91.5" cy="68.5" r="5" fill="white" stroke="#75C94E" stroke-width="3"/>
<circle cx="415.5" cy="194.5" r="5" fill="white" stroke="#75C94E" stroke-width="3"/>
</g>
<defs>
<clipPath id="clip0_29_694">
<rect width="500" height="236" fill="white"/>
</clipPath>
</defs>
</svg>
